<svg xmlns="http://www.w3.org/2000/svg" version="1.1" xmlns:xlink="http://www.w3.org/1999/xlink" xmlns:svgjs="http://svgjs.dev/svgjs" width="2000" height="1247" viewBox="0 0 2000 1247"><g transform="matrix(1,0,0,1,-1.2121212121212466,0.504858299595071)"><svg viewBox="0 0 396 247" data-background-color="#d2d6dc" preserveAspectRatio="xMidYMid meet" height="1247" width="2000" xmlns="http://www.w3.org/2000/svg" xmlns:xlink="http://www.w3.org/1999/xlink"><g id="tight-bounds" transform="matrix(1,0,0,1,0.2400000000000091,-0.09999999999999432)"><svg viewBox="0 0 395.52 247.2" height="247.2" width="395.52"><g><svg></svg></g><g><svg viewBox="0 0 395.52 247.2" height="247.2" width="395.52"><g transform="matrix(1,0,0,1,75.54432,98.7359681632653)"><svg viewBox="0 0 244.43135999999998 49.728063673469386" height="49.728063673469386" width="244.43135999999998"><g><svg viewBox="0 0 244.43135999999998 49.728063673469386" height="49.728063673469386" width="244.43135999999998"><g><svg viewBox="0 0 244.43135999999998 49.728063673469386" height="49.728063673469386" width="244.43135999999998"><g><svg viewBox="0 0 244.43135999999998 49.728063673469386" height="49.728063673469386" width="244.43135999999998"><g id="textblocktransform"><svg viewBox="0 0 244.43135999999998 49.728063673469386" height="49.728063673469386" width="244.43135999999998" id="textblock"><g><svg viewBox="0 0 244.43135999999998 49.728063673469386" height="49.728063673469386" width="244.43135999999998"><g transform="matrix(1,0,0,1,0,0)"><svg width="244.43135999999998" viewBox="0.85 -37.5 237.32 47.85" height="49.728063673469386" data-palette-color="#b99470"><path d="M9.35-24.5L9.35-24.5Q9.35-27 11.03-29.5 12.7-32 15.7-34L15.7-34Q18.25-35.65 21.18-36.58 24.1-37.5 26.9-37.5L26.9-37.5 28.9-37.5 21.4-2Q20.05 4.55 16.9 7.45 13.75 10.35 8.25 10.35L8.25 10.35Q4.8 10.35 2.83 8.45 0.85 6.55 0.85 3.3L0.85 3.3Q0.85 0.45 2.55-1.48 4.25-3.4 6.95-3.4L6.95-3.4Q9.65-3.4 10.75-2.58 11.85-1.75 11.85-0.05L11.85-0.05Q11.85 0.35 11.78 0.88 11.7 1.4 11.55 1.95L11.55 1.95Q10.7 1.25 10.05 0.95 9.4 0.65 8.55 0.65L8.55 0.65Q7 0.65 6.03 1.7 5.05 2.75 5.05 4.35L5.05 4.35Q5.05 5.95 6.03 6.9 7 7.85 8.45 7.85L8.45 7.85Q10.4 7.85 11.43 6.48 12.45 5.1 13.2 1.7L13.2 1.7 21.05-34Q17.65-32.6 15.83-29.78 14-26.95 14-23.05L14-23.05Q14-22.1 14.13-21.4 14.25-20.7 14.55-20.05L14.55-20.05Q14.65-19.85 14.68-19.78 14.7-19.7 14.7-19.65L14.7-19.65Q11.9-19.65 10.63-20.83 9.35-22 9.35-24.5ZM35.15-4.55L35.15-4.55Q36.45-4.55 37.47-5.68 38.5-6.8 39.15-8.95L39.15-8.95 42.55-25 49.75-25 46.15-8Q46.05-7.55 46-7.18 45.95-6.8 45.95-6.4L45.95-6.4Q45.95-5.4 46.42-4.98 46.9-4.55 48-4.55L48-4.55Q49.3-4.55 50.35-5.7 51.4-6.85 52.05-8.95L52.05-8.95 54.15-8.95Q52.55-4.35 50-2.02 47.45 0.3 44.1 0.3L44.1 0.3Q41.95 0.3 40.65-0.93 39.35-2.15 39.15-4.45L39.15-4.45Q37.7-2.05 35.87-0.88 34.05 0.3 31.75 0.3L31.75 0.3Q29.25 0.3 27.82-1.28 26.4-2.85 26.4-5.7L26.4-5.7Q26.4-6.35 26.5-7.18 26.6-8 26.8-8.95L26.8-8.95 30.2-25 37.4-25 33.8-8Q33.7-7.6 33.67-7.28 33.65-6.95 33.65-6.6L33.65-6.6Q33.65-5.6 34.02-5.08 34.4-4.55 35.15-4.55ZM67.3-8.35L67.3-8.35Q67.3-7.75 67.25-7.3 67.19-6.85 67.09-6.45L67.09-6.45Q68.09-7.05 69.05-7.7 70-8.35 70.69-8.95L70.69-8.95 72.8-8.95Q71.25-7.15 69.37-5.63 67.5-4.1 65.14-2.7L65.14-2.7Q63.8-1.25 61.7-0.48 59.59 0.3 57.3 0.3L57.3 0.3Q53.95 0.3 51.97-1.53 49.99-3.35 49.99-6.1L49.99-6.1Q49.99-7.65 50.74-8.93 51.49-10.2 52.64-10.75L52.64-10.75Q54.34-13.8 55.82-17.28 57.3-20.75 58.8-25.55L58.8-25.55 66.19-26.55Q66.34-22.8 66.55-19.7 66.75-16.6 67.05-12.95L67.05-12.95Q67.19-10.85 67.25-10 67.3-9.15 67.3-8.35ZM59.09-20.15L59.09-20.15Q58.45-18.1 57.52-15.88 56.59-13.65 55.05-10.7L55.05-10.7Q55.59-10.45 55.89-10 56.2-9.55 56.2-8.95L56.2-8.95Q56.2-8 55.55-7.25 54.89-6.5 53.99-6.5L53.99-6.5Q53.49-6.5 53.14-6.68 52.8-6.85 52.64-7.15L52.64-7.15Q52.64-5.3 53.37-4.48 54.09-3.65 55.7-3.65L55.7-3.65Q57.74-3.65 58.89-4.85 60.05-6.05 60.05-8.3L60.05-8.3Q60.05-9 59.99-9.73 59.95-10.45 59.8-12.15L59.8-12.15Q59.55-14.5 59.39-16.3 59.24-18.1 59.09-20.15ZM72.04-23L72.44-25 74.09-25 75.59-31.9 82.99-32.9 81.29-25 84.29-25 83.89-23 80.89-23 77.69-8Q77.59-7.55 77.54-7.18 77.49-6.8 77.49-6.4L77.49-6.4Q77.49-5.4 77.97-4.98 78.44-4.55 79.54-4.55L79.54-4.55Q80.94-4.55 82.19-5.78 83.44-7 84.04-8.95L84.04-8.95 86.14-8.95Q84.54-4.4 81.84-2.05 79.14 0.3 75.64 0.3L75.64 0.3Q73.14 0.3 71.72-1.28 70.29-2.85 70.29-5.7L70.29-5.7Q70.29-6.35 70.39-7.18 70.49-8 70.69-8.95L70.69-8.95 73.69-23 72.04-23ZM96.39-31.65L96.39-31.65Q96.39-30 95.21-28.85 94.04-27.7 92.39-27.7L92.39-27.7Q90.74-27.7 89.59-28.85 88.44-30 88.44-31.65L88.44-31.65Q88.44-33.3 89.59-34.48 90.74-35.65 92.39-35.65L92.39-35.65Q94.04-35.65 95.21-34.48 96.39-33.3 96.39-31.65ZM83.64-5.7L83.64-5.7Q83.64-6.35 83.74-7.18 83.84-8 84.04-8.95L84.04-8.95 87.44-25 94.64-25 91.04-8Q90.94-7.55 90.89-7.18 90.84-6.8 90.84-6.4L90.84-6.4Q90.84-5.4 91.31-4.98 91.79-4.55 92.89-4.55L92.89-4.55Q94.29-4.55 95.54-5.78 96.79-7 97.39-8.95L97.39-8.95 99.49-8.95Q97.89-4.4 95.19-2.05 92.49 0.3 88.99 0.3L88.99 0.3Q86.49 0.3 85.06-1.28 83.64-2.85 83.64-5.7ZM109.14-5.35L109.14-5.35Q109.14-6.25 109.36-7.6 109.59-8.95 110.29-11.9L110.29-11.9Q110.99-14.75 111.19-16 111.39-17.25 111.39-18.1L111.39-18.1Q111.39-19.35 110.94-20 110.49-20.65 109.59-20.65L109.59-20.65Q108.39-20.65 107.36-19.43 106.34-18.2 105.69-16.05L105.69-16.05 102.29 0 95.09 0 100.39-25 107.59-25 107.04-22.4Q108.29-23.8 109.74-24.5 111.19-25.2 112.89-25.2L112.89-25.2Q115.54-25.2 116.99-23.75 118.44-22.3 118.44-19.55L118.44-19.55Q118.44-18.4 118.16-16.82 117.89-15.25 117.09-12L117.09-12Q116.44-9.45 116.24-8.4 116.04-7.35 116.04-6.65L116.04-6.65Q116.04-5.6 116.54-5.08 117.04-4.55 118.04-4.55L118.04-4.55Q119.29-4.55 120.19-5.4 121.09-6.25 122.24-8.95L122.24-8.95 124.34-8.95Q122.74-4.3 120.46-2 118.19 0.3 115.04 0.3L115.04 0.3Q112.24 0.3 110.69-1.23 109.14-2.75 109.14-5.35ZM141.03-20.65L141.03-20.65Q141.03-16.5 137.63-13.43 134.23-10.35 129.53-10.1L129.53-10.1Q129.48-9.25 129.46-8.83 129.44-8.4 129.44-8.1L129.44-8.1Q129.44-5.8 130.21-4.85 130.98-3.9 133.03-3.9L133.03-3.9Q135.38-3.9 137.36-4.98 139.33-6.05 141.88-8.95L141.88-8.95 143.58-8.95Q140.69-4.25 137.28-1.98 133.88 0.3 129.83 0.3L129.83 0.3Q125.98 0.3 124.01-1.7 122.03-3.7 122.03-7.65L122.03-7.65Q122.03-10.5 122.93-13.7 123.83-16.9 125.33-19.4L125.33-19.4Q127.18-22.4 129.76-23.93 132.33-25.45 135.53-25.45L135.53-25.45Q138.28-25.45 139.66-24.28 141.03-23.1 141.03-20.65ZM135.94-22.8L135.94-22.8Q134.23-22.8 132.51-19.78 130.78-16.75 129.94-12.5L129.94-12.5Q132.83-12.7 135.01-15.18 137.19-17.65 137.19-20.75L137.19-20.75Q137.19-21.8 136.88-22.3 136.58-22.8 135.94-22.8ZM150.03-37.5L155.28-37.5 150.73-28.05 146.98-28.05 150.03-37.5ZM170.98-8.35L170.98-8.35Q170.98-7.75 170.93-7.3 170.88-6.85 170.78-6.45L170.78-6.45Q171.78-7.05 172.73-7.7 173.68-8.35 174.38-8.95L174.38-8.95 176.48-8.95Q174.93-7.15 173.06-5.63 171.18-4.1 168.83-2.7L168.83-2.7Q167.48-1.25 165.38-0.48 163.28 0.3 160.98 0.3L160.98 0.3Q157.63 0.3 155.66-1.53 153.68-3.35 153.68-6.1L153.68-6.1Q153.68-7.65 154.43-8.93 155.18-10.2 156.33-10.75L156.33-10.75Q158.03-13.8 159.5-17.28 160.98-20.75 162.48-25.55L162.48-25.55 169.88-26.55Q170.03-22.8 170.23-19.7 170.43-16.6 170.73-12.95L170.73-12.95Q170.88-10.85 170.93-10 170.98-9.15 170.98-8.35ZM162.78-20.15L162.78-20.15Q162.13-18.1 161.21-15.88 160.28-13.65 158.73-10.7L158.73-10.7Q159.28-10.45 159.58-10 159.88-9.55 159.88-8.95L159.88-8.95Q159.88-8 159.23-7.25 158.58-6.5 157.68-6.5L157.68-6.5Q157.18-6.5 156.83-6.68 156.48-6.85 156.33-7.15L156.33-7.15Q156.33-5.3 157.06-4.48 157.78-3.65 159.38-3.65L159.38-3.65Q161.43-3.65 162.58-4.85 163.73-6.05 163.73-8.3L163.73-8.3Q163.73-9 163.68-9.73 163.63-10.45 163.48-12.15L163.48-12.15Q163.23-14.5 163.08-16.3 162.93-18.1 162.78-20.15ZM194.47-11.8L194.47-11.8Q194.47-7.65 195.92-5.83 197.38-4 200.47-4L200.47-4Q203.32-4 205.9-5.33 208.47-6.65 210.22-9L210.22-9 211.38-8.5Q209.72-4.25 205.65-1.73 201.57 0.8 197.13 0.8L197.13 0.8Q191.32 0.8 188.75-2.13 186.17-5.05 186.17-11.5L186.17-11.5Q186.17-15.65 187.22-20.15 188.28-24.65 190.13-28.2L190.13-28.2Q192.53-32.75 195.95-35.13 199.38-37.5 203.63-37.5L203.63-37.5Q207.63-37.5 209.8-35.77 211.97-34.05 211.97-30.8L211.97-30.8Q211.97-28.55 211.07-27.38 210.18-26.2 208.47-26.2L208.47-26.2Q207.63-26.2 206.9-26.53 206.18-26.85 205.63-27.5L205.63-27.5Q206.53-27.95 207.22-29.33 207.93-30.7 207.93-32.1L207.93-32.1Q207.93-33.55 207.13-34.35 206.32-35.15 204.88-35.15L204.88-35.15Q202.67-35.15 200.53-32.48 198.38-29.8 196.78-25.1L196.78-25.1Q195.67-21.9 195.07-18.43 194.47-14.95 194.47-11.8ZM209.37-7.7L209.37-7.7Q209.37-10.55 210.3-13.75 211.22-16.95 212.82-19.45L212.82-19.45Q214.67-22.4 217.27-23.93 219.87-25.45 223.07-25.45L223.07-25.45Q226.27-25.45 227.87-23.45 229.47-21.45 229.47-17.45L229.47-17.45Q229.57-17.4 229.7-17.38 229.82-17.35 230.02-17.35L230.02-17.35Q231.57-17.35 233.72-18.2 235.87-19.05 237.72-20.35L237.72-20.35 238.17-19Q236.77-17.5 234.45-16.4 232.12-15.3 229.32-14.85L229.32-14.85Q228.72-8.1 225.42-3.95 222.12 0.2 217.37 0.2L217.37 0.2Q213.47 0.2 211.42-1.8 209.37-3.8 209.37-7.7ZM223.47-22.4L223.47-22.4Q221.07-22.4 218.95-17.55 216.82-12.7 216.82-8.35L216.82-8.35Q216.82-6 217.35-5.15 217.87-4.3 219.37-4.3L219.37-4.3Q221.22-4.3 222.9-7.3 224.57-10.3 225.17-14.7L225.17-14.7Q224.47-14.85 224.15-15.38 223.82-15.9 223.82-16.8L223.82-16.8Q223.82-17.75 224.22-18.45 224.62-19.15 225.37-19.5L225.37-19.5Q225.27-21.1 224.85-21.75 224.42-22.4 223.47-22.4ZM236.02-3.75L236.02-3.75Q236.02-2.1 234.84-0.95 233.67 0.2 232.02 0.2L232.02 0.2Q230.37 0.2 229.22-0.95 228.07-2.1 228.07-3.75L228.07-3.75Q228.07-5.4 229.22-6.58 230.37-7.75 232.02-7.75L232.02-7.75Q233.67-7.75 234.84-6.58 236.02-5.4 236.02-3.75Z" opacity="1" transform="matrix(1,0,0,1,0,0)" fill="#b99470" class="wordmark-text-0" data-fill-palette-color="primary" id="text-0"></path></svg></g></svg></g></svg></g></svg></g></svg></g></svg></g></svg></g><path d="M190.966 92.736L190.966 32.161 8.087 32.161 8.087 215.039 190.966 215.039 190.966 154.464 186.481 154.464 186.481 210.555 12.572 210.555 12.572 36.645 186.481 36.645 186.481 92.736Z" fill="#5f6f52" stroke="transparent" data-fill-palette-color="tertiary"></path></svg></g><defs></defs></svg><rect width="395.52" height="247.2" fill="none" stroke="none" visibility="hidden"></rect></g></svg></g></svg>